<svg
   xmlns:dc="http://purl.org/dc/elements/1.1/"
   xmlns:cc="http://web.resource.org/cc/"
   xmlns:rdf="http://www.w3.org/1999/02/22-rdf-syntax-ns#"
   xmlns:svg="http://www.w3.org/2000/svg"
   xmlns="http://www.w3.org/2000/svg"
   xmlns:sodipodi="http://sodipodi.sourceforge.net/DTD/sodipodi-0.dtd"
   xmlns:inkscape="http://www.inkscape.org/namespaces/inkscape"
   width="744.09448819"
   height="1052.3622047"
   id="svg2"
   sodipodi:version="0.32"
   inkscape:version="0.45.1"
   sodipodi:docbase="D:\Documents and Settings\shyamal\Desktop"
   sodipodi:docname="Cathartes_melambrotus_flight.svg"
   inkscape:output_extension="org.inkscape.output.svg.inkscape">
  <defs
     id="defs4" />
  <sodipodi:namedview
     id="base"
     pagecolor="#ffffff"
     bordercolor="#666666"
     borderopacity="1.0"
     gridtolerance="10000"
     guidetolerance="10"
     objecttolerance="10"
     inkscape:pageopacity="0.0"
     inkscape:pageshadow="2"
     inkscape:zoom="0.422015"
     inkscape:cx="548.6802"
     inkscape:cy="359.02429"
     inkscape:document-units="px"
     inkscape:current-layer="layer1"
     inkscape:window-width="1280"
     inkscape:window-height="744"
     inkscape:window-x="295"
     inkscape:window-y="-23"
     showguides="true"
     inkscape:guide-bbox="true" />
  <metadata
     id="metadata7">
    <rdf:RDF>
      <cc:Work
         rdf:about="">
        <dc:format>image/svg+xml</dc:format>
        <dc:type
           rdf:resource="http://purl.org/dc/dcmitype/StillImage" />
      </cc:Work>
    </rdf:RDF>
  </metadata>
  <g
     inkscape:label="Layer 1"
     inkscape:groupmode="layer"
     id="layer1">
    <g
       id="g7093">
      <path
         sodipodi:nodetypes="cscszszcsccscsscscssccssscszccscscscscsscscccsccsssccsccscsscsscsscsscsssssscscscssc"
         id="path2221"
         d="M 248.05716,565.92454 C 254.02984,553.86417 253.90695,550.6971 252.84216,515.0448 C 251.77736,479.3925 243.79798,423.31535 243.79798,423.31535 C 243.79798,423.31535 241.63104,412.80355 240.1557,399.41163 C 238.68038,386.01971 240.8545,394.21815 237.89664,369.74768 C 234.93877,345.2772 227.27701,339.50782 225.5082,304.63079 C 223.73938,269.75377 224.80428,251.64008 230.82139,230.23955 C 236.78933,209.01389 253.09634,172.26109 254.50556,175.24688 C 254.50556,175.24688 260.85213,177.10595 259.29569,195.89268 C 257.73926,214.67941 248.27982,250.3938 248.27982,250.3938 L 249.44858,264.80872 C 249.44858,264.80872 262.93992,213.06483 270.84489,189.40559 C 278.74986,165.74635 281.06846,170.17175 281.06846,170.17175 C 281.06846,170.17175 286.50052,179.51806 286.69268,190.896 C 286.88485,202.27392 286.55147,205.81882 284.71722,216.37508 C 282.88299,226.93134 279.9545,235.70175 279.9545,235.70175 C 279.9545,235.70175 301.91489,192.32757 314.66754,170.80718 C 327.42019,149.28678 330.36633,147.03944 330.36633,147.03944 C 330.36633,147.03944 336.38671,150.13003 337.01031,156.92045 C 337.6339,163.71087 336.35595,166.1151 333.75887,178.07219 C 331.16179,190.02928 325.346,200.42145 325.346,200.42145 L 314.33801,227.99622 C 314.33801,227.99622 337.08166,195.77501 350.24465,181.72627 C 362.80395,168.32185 365.64083,163.12901 367.89267,177.49569 C 368.25565,179.81151 367.38801,187.33551 360.37795,203.71604 C 353.36788,220.09657 339.85239,243.0178 339.85239,243.0178 C 339.85239,243.0178 364.66736,220.7385 378.1397,211.69748 C 391.61202,202.65646 392.29643,202.08973 393.74171,206.85374 C 395.18698,211.61775 392.2513,222.70153 392.2513,222.70153 L 377.07285,249.88409 C 377.07285,249.88409 392.4075,245.64631 396.17857,252.52237 C 399.94963,259.39842 392.1571,277.3883 392.1571,277.3883 C 392.1571,277.3883 403.68472,277.84131 407.2989,286.38555 C 410.91309,294.92979 406.61382,311.56526 406.61382,311.56526 C 406.61382,311.56526 417.44266,317.21175 417.94859,325.25331 C 418.45453,333.29486 408.63757,343.73149 408.63757,343.73149 C 408.63757,343.73149 412.57793,351.0442 413.29959,356.792 C 414.02124,362.5398 411.52419,366.72268 411.52419,366.72268 C 411.52419,366.72268 422.29419,372.99474 426.71566,384.13931 C 431.13712,395.28389 434.29504,404.20596 435.12321,424.47916 C 435.9514,444.75236 430.02839,465.23209 430.02839,465.23209 C 430.02839,465.23209 433.07189,486.55511 429.75642,503.91419 C 426.44094,521.27329 416.76647,534.66846 416.76647,534.66846 C 415.58151,544.78396 413.94093,564.23651 404.07591,566.71308 L 522.40353,565.63989 C 522.40353,565.63989 532.51919,581.1066 534.27952,600.41562 C 536.03985,619.72464 520.26983,642.0131 520.26983,642.0131 L 414.65365,628.71453 C 414.65365,628.71453 412.16902,635.00226 413.68358,647.97713 C 415.19814,660.952 418.42926,664.62176 420.71188,680.61402 C 422.9945,696.60627 424.40057,701.78732 422.34342,716.95071 C 420.28628,732.11409 412.4833,741.26755 412.4833,741.26755 L 399.57179,771.18772 C 399.57179,771.18772 402.02569,780.88505 397.76762,790.37188 C 393.50955,799.85872 382.53949,809.13506 382.53949,809.13506 L 372.37348,809.86194 C 372.37348,809.86194 373.45857,820.69274 369.37177,823.88465 C 365.28497,827.07655 356.02626,822.62957 356.02626,822.62957 C 356.02626,822.62957 361.51193,826.93208 362.27803,836.68105 C 363.04413,846.43002 371.11181,868.01516 359.09066,861.62544 C 347.06952,855.23571 317.81482,817.35302 317.81482,817.35302 C 317.81482,817.35302 331.01192,835.84431 334.33194,847.5164 C 337.65197,859.18848 340.31439,868.90543 331.0949,864.04139 C 321.87542,859.17735 297.45402,828.06026 297.45402,828.06026 C 297.45402,828.06026 303.60774,843.15436 302.24416,848.70606 C 300.88058,854.25775 302.71609,861.58287 291.99969,850.26702 C 281.2833,838.95117 259.37857,803.44267 259.37857,803.44267 C 259.37857,803.44267 259.974,827.66 255.60743,829.35301 C 251.24086,831.04603 247.7259,820.904 241.91227,810.21475 C 236.09863,799.5255 232.3529,786.59602 232.3529,786.59602 C 232.3529,786.59602 230.64701,809.20892 226.5602,812.40083 C 222.47339,815.59274 219.25446,809.55647 216.00569,799.36365 C 212.75692,789.17084 210.62723,784.97356 214.45259,762.19286 C 218.27795,739.41215 223.51262,732.96232 231.77777,703.23628 C 240.04293,673.51026 242.76289,664.72025 247.51321,643.28874 C 252.26352,621.85723 255.72278,625.33807 250.77902,617.51026 C 245.83525,609.68245 231.94785,611.95265 231.94785,611.95265 C 231.94785,611.95265 220.0692,608.52148 213.10229,611.02179 C 206.13538,613.52211 200.28755,622.01797 200.28755,622.01797 C 200.28755,622.01797 196.99237,614.55556 198.08859,609.60982 C 199.18482,604.6641 205.74188,599.8112 205.74188,599.8112 C 205.74188,599.8112 206.7697,596.00709 211.15304,591.48464 C 220.12251,582.23052 226.07653,583.25844 231.47462,581.19446 C 240.91053,577.58658 242.54021,575.08336 248.05716,565.92454 z "
         style="fill:#2b2927;fill-opacity:1;fill-rule:evenodd;stroke:#000000;stroke-width:0.1;stroke-linecap:butt;stroke-linejoin:miter;stroke-miterlimit:4;stroke-dasharray:none;stroke-opacity:1" />
      <path
         sodipodi:nodetypes="ccsscscsscscscssssccccsscccscccccssc"
         id="path6140"
         d="M 228.70876,300.16963 L 227.27504,321.73263 C 230.21086,342.44147 235.7062,349.97197 238.10308,369.8014 C 241.06095,394.27188 238.85827,386.09249 240.3336,399.4844 C 241.80894,412.87633 243.98829,423.36902 243.98829,423.36903 C 243.98829,423.36903 251.96625,479.46651 253.03105,515.11879 C 254.09584,550.77109 254.21971,553.92772 248.24704,565.98808 C 242.73008,575.14689 241.11828,577.6463 231.68237,581.25416 C 226.28428,583.31815 220.31709,582.29758 211.34761,591.55167 C 206.96427,596.07412 205.92074,599.86126 205.92072,599.86129 C 205.92072,599.86129 199.37569,604.74326 198.27947,609.689 C 197.18324,614.63474 200.47323,622.07383 200.47324,622.07382 C 200.47324,622.07382 206.33998,613.60256 213.30691,611.10226 C 220.27381,608.60195 232.14688,612.02658 232.14688,612.0266 C 232.14688,612.0266 246.01744,609.73474 250.96119,617.56254 C 255.90496,625.39035 252.47108,621.90963 247.72075,643.34113 C 242.97044,664.77264 240.24144,673.56052 231.97627,703.28654 C 223.71112,733.01258 218.48426,739.48724 214.6589,762.26794 C 211.4711,781.25186 212.42906,787.33063 214.71357,794.72817 L 232.52547,786.89276 C 232.52626,786.88244 232.54595,786.67497 232.54595,786.67497 C 232.54595,786.67497 232.5871,786.85546 232.59062,786.8675 C 232.59062,786.8675 244.47687,788.05597 259.20781,775.18339 C 273.93875,762.31081 281.53492,752.87906 291.51437,735.37719 C 301.49382,717.87532 299.12562,705.17592 299.12562,705.17592 L 348.24528,638.37956 L 446.27535,608.33278 C 424.40446,638.40184 444.04063,594.14104 424.95889,581.93497 C 405.87715,569.7289 369.9484,559.50852 369.9484,559.50852 L 345.93016,485.84477 L 322.49816,431.2861 L 304.16432,398.61343 L 307.04936,367.93629 C 307.04936,367.93629 304.0166,337.06883 294.61953,323.09633 C 285.22246,309.12383 285.10099,320.29129 269.46107,312.04629 C 253.82115,303.80129 228.70876,300.16963 228.70876,300.16963 z "
         style="fill:#1a1a1a;fill-opacity:1;fill-rule:evenodd;stroke:#000000;stroke-width:0.1;stroke-linecap:butt;stroke-linejoin:miter;stroke-miterlimit:4;stroke-dasharray:none;stroke-opacity:1" />
      <path
         sodipodi:nodetypes="csscscsscscscsssczzcccsccccsssccccscc"
         id="path2228"
         d="M 227.26776,323.53465 C 230.22567,343.74239 235.62772,351.35092 237.99876,370.96654 C 240.95662,395.43702 238.75395,387.25763 240.22928,400.64954 C 241.70462,414.04147 243.88397,424.53416 243.88397,424.53417 C 243.88397,424.53417 251.86193,480.63165 252.92673,516.28393 C 253.99152,551.93623 254.11539,555.09286 248.14272,567.15322 C 242.62576,576.31203 241.01396,578.81144 231.57805,582.41931 C 226.17996,584.48329 220.21276,583.46272 211.24329,592.71681 C 206.85995,597.23927 205.81641,601.0264 205.8164,601.02643 C 205.8164,601.02643 199.27137,605.9084 198.17514,610.85414 C 197.07892,615.79988 200.36891,623.23897 200.36892,623.23896 C 200.36892,623.23896 206.23566,614.7677 213.20259,612.2674 C 220.16949,609.76709 232.04256,613.19172 232.04256,613.19174 C 232.04256,613.19174 245.91311,610.89988 250.85687,618.72768 C 255.80063,626.55549 252.36675,623.07477 247.61643,644.50627 C 242.86612,665.93778 240.13712,674.72566 231.87195,704.45168 C 224.00701,732.73836 218.90959,739.99373 215.13597,760.25481 C 225.26816,757.52894 232.9199,755.95597 247.38748,749.06919 C 261.85506,742.18241 266.50689,738.67794 274.37112,727.81485 C 282.23536,716.95176 278.84534,705.60494 278.84533,705.60496 L 299.09994,680.13957 L 329.70614,633.04841 C 329.70614,633.04841 349.15768,634.88463 369.06461,631.99671 C 388.97153,629.10878 407.84765,629.26661 421.01117,623.77278 L 456.59993,599.75221 L 434.34782,583.37801 L 402.41508,568.47888 C 402.41508,568.47888 389.07899,571.10894 377.02009,560.15829 C 364.9612,549.20765 364.89377,537.2866 354.1795,524.6763 C 343.46524,512.06599 334.18078,509.70679 334.18077,509.70677 C 326.55712,495.90109 323.68491,469.45343 323.68491,469.45343 L 304.91307,428.42178 L 286.24568,399.29596 L 286.72829,381.48163 C 286.72829,381.48163 283.29241,364.1955 274.16357,350.54426 C 265.03473,336.89303 250.2111,326.88509 250.2111,326.8851 L 227.26776,323.53465 z "
         style="opacity:0.5698001;fill:#000000;fill-opacity:1;fill-rule:evenodd;stroke:#000000;stroke-width:0;stroke-linecap:butt;stroke-linejoin:miter;stroke-miterlimit:4;stroke-dasharray:none;stroke-opacity:1" />
      <path
         id="path3205"
         d="M 230.58803,581.78381 C 225.48496,583.35936 219.72555,583.08488 211.38903,591.68592 C 207.00569,596.20838 205.96216,599.99551 205.96215,599.99554 C 205.96215,599.99555 199.41712,604.8775 198.32089,609.82325 C 197.22466,614.769 200.51465,622.20807 200.51466,622.20807 C 200.51466,622.20808 206.38141,613.73681 213.34833,611.23651 C 217.56248,609.72412 223.54841,610.38259 227.63921,611.13665 C 230.09556,609.89287 232.51516,608.47525 234.1568,606.91587 C 238.89237,602.41759 236.81712,602.10799 237.18352,597.09361 C 237.54992,592.07924 238.46679,591.41993 235.63668,586.84124 C 234.42216,584.87632 232.4408,583.15829 230.58803,581.78381 z "
         style="fill:#ffdd4b;fill-opacity:1;fill-rule:evenodd;stroke:#000000;stroke-width:0;stroke-linecap:butt;stroke-linejoin:miter;stroke-miterlimit:4;stroke-dasharray:none;stroke-opacity:1" />
      <path
         sodipodi:nodetypes="csssccc"
         id="path3162"
         d="M 205.22337,600.85245 C 203.86664,601.93174 199.10335,605.96633 198.15784,610.2321 C 197.06161,615.17782 200.3516,622.61692 200.35161,622.61692 C 200.3516,622.6169 206.21836,614.14565 213.18528,611.64536 C 213.92802,611.3788 214.73096,611.196 215.5637,611.05295 L 211.1702,607.89101 L 205.22337,600.85245 z "
         style="fill:#999999;fill-opacity:1;fill-rule:evenodd;stroke:#000000;stroke-width:0;stroke-linecap:butt;stroke-linejoin:miter;stroke-miterlimit:4;stroke-dasharray:none;stroke-opacity:1" />
      <g
         transform="matrix(0.604478,5.6848245e-2,-5.9924816e-2,0.6371917,-13.189292,149.37109)"
         id="g3213">
        <path
           sodipodi:type="arc"
           style="opacity:1;fill:#d40000;fill-opacity:1;fill-rule:nonzero;stroke:#e21111;stroke-width:0;stroke-linecap:round;stroke-linejoin:round;stroke-miterlimit:4;stroke-dasharray:none;stroke-dashoffset:0;stroke-opacity:1"
           id="path3207"
           sodipodi:cx="453.65488"
           sodipodi:cy="657.56097"
           sodipodi:rx="5.8644214"
           sodipodi:ry="5.2360902"
           d="M 459.51626,657.7294 A 5.8644214,5.2360902 0 1 1 459.5186,657.64193"
           sodipodi:start="0.032172804"
           sodipodi:end="6.2986478"
           sodipodi:open="true" />
        <path
           sodipodi:type="arc"
           style="opacity:1;fill:#000000;fill-opacity:1;fill-rule:nonzero;stroke:#e21111;stroke-width:0;stroke-linecap:round;stroke-linejoin:round;stroke-miterlimit:4;stroke-dasharray:none;stroke-dashoffset:0;stroke-opacity:1"
           id="path3209"
           sodipodi:cx="458.47208"
           sodipodi:cy="677.66754"
           sodipodi:rx="3.1416543"
           sodipodi:ry="3.1416543"
           d="M 461.6121,677.7686 A 3.1416543,3.1416543 0 1 1 461.61336,677.71612"
           sodipodi:start="0.032172804"
           sodipodi:end="6.2986478"
           sodipodi:open="true"
           transform="matrix(0.8666675,0,0,0.8666679,56.521484,70.667139)" />
        <path
           sodipodi:type="arc"
           style="opacity:1;fill:#ffffff;fill-opacity:1;fill-rule:nonzero;stroke:#e21111;stroke-width:0;stroke-linecap:round;stroke-linejoin:round;stroke-miterlimit:4;stroke-dasharray:none;stroke-dashoffset:0;stroke-opacity:1"
           id="path3211"
           sodipodi:cx="461.61374"
           sodipodi:cy="678.08643"
           sodipodi:rx="2.5133233"
           sodipodi:ry="2.3038797"
           d="M 464.12576,678.16054 A 2.5133233,2.3038797 0 1 1 464.12676,678.12205"
           sodipodi:start="0.032172804"
           sodipodi:end="6.2986478"
           sodipodi:open="true"
           transform="translate(-6.2833084,-22.61991)" />
      </g>
      <path
         sodipodi:nodetypes="csscsc"
         id="path3218"
         d="M 204.86856,600.14979 C 204.86856,600.14979 209.5015,601.21661 210.92816,602.82335 C 212.35481,604.43009 211.59556,604.67423 210.57517,606.57677 C 209.55478,608.47931 206.84658,610.43348 206.84658,610.43348 C 206.84658,610.43348 202.72873,608.36327 202.23423,605.79235 C 201.73973,603.22143 204.86856,600.14979 204.86856,600.14979 z "
         style="fill:#ff8080;fill-rule:evenodd;stroke:#000000;stroke-width:0;stroke-linecap:butt;stroke-linejoin:miter;stroke-miterlimit:4;stroke-dasharray:none;stroke-opacity:1" />
      <path
         sodipodi:nodetypes="cscc"
         id="path4189"
         d="M 204.31946,605.98845 C 204.31946,605.98845 204.20281,603.73782 205.46733,602.73053 C 206.73185,601.72323 208.4651,602.17098 208.4651,602.17098 L 204.31946,605.98845 z "
         style="fill:#000000;fill-rule:evenodd;stroke:#000000;stroke-width:1px;stroke-linecap:butt;stroke-linejoin:miter;stroke-opacity:1" />
      <path
         sodipodi:nodetypes="czsscc"
         id="path5160"
         d="M 200.65931,623.8293 C 200.65931,623.8293 199.88416,617.8362 201.1659,615.2792 C 202.44763,612.7222 203.69655,612.09589 207.05644,609.58557 C 210.41633,607.07526 211.21343,607.29897 214.60544,605.23793 C 217.99745,603.1769 220.62448,601.34143 220.62448,601.34143 L 228.56914,599.11354"
         style="fill:none;fill-rule:evenodd;stroke:#000000;stroke-width:0.30000001;stroke-linecap:butt;stroke-linejoin:miter;stroke-miterlimit:4;stroke-dasharray:none;stroke-opacity:1" />
      <path
         id="path6131"
         d="M 394.27984,594.82257 L 417.39914,599.52123 L 449.48693,598.33158 L 466.84603,601.64707 L 438.61494,606.56531 L 408.58755,603.74138 L 394.64328,599.90556 L 394.27984,594.82257 z "
         style="fill:#de8787;fill-rule:evenodd;stroke:#000000;stroke-width:1px;stroke-linecap:butt;stroke-linejoin:miter;stroke-opacity:1" />
      <path
         id="path6133"
         d="M 396.72458,613.56484 L 418.80324,611.43388 L 456.96501,608.29104 L 465.30594,609.07547 L 443.59073,616.28944 L 419.08823,617.35098 L 394.58573,618.41252 L 396.72458,613.56484 z "
         style="fill:#de8787;fill-rule:evenodd;stroke:#000000;stroke-width:1px;stroke-linecap:butt;stroke-linejoin:miter;stroke-opacity:1" />
      <path
         id="path2171"
         d="M 208.20101,613.92673 L 207.68068,610.51191 L 211.70865,607.94557 L 216.97338,610.12364 L 208.20101,613.92673 z "
         style="fill:#ff8080;fill-opacity:1;fill-rule:evenodd;stroke:#000000;stroke-width:0;stroke-linecap:butt;stroke-linejoin:miter;stroke-miterlimit:4;stroke-dasharray:none;stroke-opacity:1" />
      <path
         id="path2193"
         d="M 329.23714,146.45994 C 329.23714,146.45994 326.27104,148.7208 313.51839,170.24119 C 300.76574,191.76157 278.8309,235.11618 278.8309,235.11618 C 278.8309,235.11618 281.74667,226.35994 283.5809,215.80368 C 285.41515,205.24742 285.74181,201.71285 285.54965,190.33493 C 285.35749,178.95699 279.92466,169.58494 279.92465,169.58494 C 279.92465,169.58494 277.61088,165.1757 269.7059,188.83493 C 261.80093,212.49417 248.29965,264.24118 248.29965,264.24118 L 247.1434,249.83493 C 247.1434,249.83493 256.58698,214.12166 258.1434,195.33493 C 259.69984,176.54821 253.36216,174.67868 253.36215,174.67869 C 251.95293,171.6929 235.64258,208.45302 229.67465,229.67868 C 223.84654,250.40701 222.66709,268.0855 224.2059,300.86619 L 236.79965,299.45994 C 236.79965,299.45994 248.10136,300.31426 261.92465,306.17869 C 275.74793,312.04311 292.08089,322.92868 292.0809,322.92869 L 380.23714,248.45993 C 377.76203,248.83582 375.92464,249.30368 375.92464,249.30368 L 391.11214,222.11618 C 391.11214,222.11618 394.05742,211.03644 392.61214,206.27243 C 391.16686,201.50842 390.45945,202.07516 376.98714,211.11618 C 363.5148,220.1572 338.70589,242.45992 338.70589,242.45993 C 338.70589,242.45993 352.22706,219.52797 359.23714,203.14743 C 366.2472,186.7669 367.13137,179.24449 366.76839,176.92869 C 364.51655,162.56201 361.67143,167.74302 349.11214,181.14743 C 335.94915,195.19617 313.20589,227.42868 313.20589,227.42868 L 324.20589,199.83493 C 324.20589,199.83493 330.01505,189.44827 332.61214,177.49118 C 335.20922,165.5341 336.48573,163.12535 335.86214,156.33494 C 335.23854,149.54452 329.23714,146.45994 329.23714,146.45994 z "
         style="opacity:0.40199989;fill:#7d624f;fill-opacity:1;fill-rule:evenodd;stroke:#000000;stroke-width:0.1;stroke-linecap:butt;stroke-linejoin:miter;stroke-miterlimit:4;stroke-dasharray:none;stroke-opacity:1" />
      <path
         sodipodi:nodetypes="ccsssccccscssc"
         id="path3172"
         d="M 426.61965,380.29413 L 308.5259,402.41913 C 308.52592,402.41912 330.28696,445.58488 343.69135,476.16365 C 357.09573,506.74243 352.68001,501.3497 357.093,516.35389 C 363.3763,537.71717 369.66148,549.86858 378.877,559.92187 C 388.09251,569.97519 398.99465,564.95038 398.99465,564.95038 L 405.1509,563.26288 L 405.18215,563.26288 C 414.24827,559.86075 415.84671,541.28102 416.99465,531.48163 C 416.99465,531.48163 426.64793,518.09074 429.9634,500.73163 C 433.27887,483.37255 430.24466,462.04413 430.24465,462.04413 C 430.24465,462.04413 436.1666,441.56733 435.3384,421.29413 C 434.51023,401.02093 431.3536,392.09496 426.93215,380.95038 C 426.84187,380.72283 426.71508,380.51761 426.61965,380.29413 z "
         style="opacity:0.24050633;fill:#7b554c;fill-opacity:1;fill-rule:evenodd;stroke:#000000;stroke-width:0.1;stroke-linecap:butt;stroke-linejoin:miter;stroke-miterlimit:4;stroke-dasharray:none;stroke-opacity:1" />
      <path
         sodipodi:nodetypes="ccsssscccscccc"
         id="path4148"
         d="M 378.33318,244.0196 L 339.77068,262.80085 C 339.77068,262.80085 315.06756,260.2696 297.89569,259.42585 C 280.72382,258.5821 281.97382,256.91023 271.08319,259.42585 C 260.19257,261.94148 264.38788,266.97273 254.33319,269.48835 C 244.2785,272.00398 238.62225,265.79304 230.86444,269.48835 C 223.10663,273.18366 223.30194,284.2696 223.30194,284.2696 C 223.39229,289.26713 223.58942,294.62964 223.86444,300.48835 L 236.45819,299.0821 C 236.45819,299.08211 247.7599,299.93642 261.58319,305.80085 C 275.40647,311.66528 291.73943,322.55084 291.73944,322.55085 L 379.89568,248.0821 C 377.42056,248.45799 375.58318,248.92585 375.58318,248.92585 L 378.33318,244.0196 z "
         style="opacity:0.40199992;fill:#000000;fill-opacity:1;fill-rule:evenodd;stroke:#000000;stroke-width:0.1;stroke-linecap:butt;stroke-linejoin:miter;stroke-miterlimit:4;stroke-dasharray:none;stroke-opacity:1" />
      <path
         sodipodi:nodetypes="ccccc"
         id="path4155"
         d="M 515.71483,567.11429 L 413.58983,568.05179 L 408.83983,569.61429 L 521.9276,572.49389 C 519.13918,566.0746 515.71484,567.11429 515.71483,567.11429 z "
         style="opacity:0.55719999;fill:#b3b3b3;fill-opacity:1;fill-rule:evenodd;stroke:#000000;stroke-width:0.1;stroke-linecap:butt;stroke-linejoin:miter;stroke-miterlimit:4;stroke-dasharray:none;stroke-opacity:1" />
      <path
         id="path4164"
         d="M 418.85314,625.86558 L 417.07189,628.42808 L 517.72814,641.08433 C 517.72814,641.08433 517.85918,640.90172 517.88439,640.86558 L 517.69689,637.58433 L 418.85314,625.86558 z "
         style="opacity:0.76459997;fill:#cccccc;fill-opacity:1;fill-rule:evenodd;stroke:#000000;stroke-width:0.1;stroke-linecap:butt;stroke-linejoin:miter;stroke-miterlimit:4;stroke-dasharray:none;stroke-opacity:1" />
      <path
         sodipodi:nodetypes="cccsscc"
         id="path4166"
         d="M 225.36133,266.52974 L 231.22575,232.18099 L 253.00789,178.56342 C 253.00789,178.56342 252.79844,189.0356 248.81901,202.85888 C 244.83958,216.68216 241.27904,221.28991 237.09017,233.85653 C 232.9013,246.42315 232.06353,253.12535 232.06353,253.12535 L 225.36133,266.52974 z "
         style="fill:#b3b3b3;fill-rule:evenodd;stroke:#000000;stroke-width:0;stroke-linecap:butt;stroke-linejoin:miter;stroke-opacity:1;stroke-miterlimit:4;stroke-dasharray:none;opacity:0.55274262" />
      <path
         id="path5137"
         d="M 251.33234,264.01642 L 269.76338,191.13004 L 278.9789,170.18568 L 271.43893,202.02111 L 260.54786,246.42315 L 251.33234,264.01642 z "
         style="fill:#85807c;fill-rule:evenodd;stroke:#000000;stroke-width:0;stroke-linecap:butt;stroke-linejoin:miter;stroke-opacity:1;fill-opacity:1;stroke-miterlimit:4;stroke-dasharray:none;opacity:0.57960003" />
      <path
         sodipodi:nodetypes="ccczc"
         id="path6108"
         d="M 275.6278,254.8009 L 295.73439,210.39885 L 330.08314,145.89022 C 330.08314,145.89022 319.40152,173.11789 305.78768,200.34556 C 292.17385,227.57323 275.6278,254.8009 275.6278,254.8009 z "
         style="fill:#b3b3b3;fill-rule:evenodd;stroke:#000000;stroke-width:0;stroke-linecap:butt;stroke-linejoin:miter;stroke-opacity:1;opacity:0.82760007;stroke-miterlimit:4;stroke-dasharray:none" />
      <path
         sodipodi:nodetypes="cccccssscc"
         id="path7084"
         d="M 412.89295,627.75542 L 365.14295,631.94292 L 350.0492,636.97417 L 301.45545,700.66167 L 413.1742,739.75542 C 413.1742,739.75542 420.99207,730.57508 423.0492,715.41167 C 425.10635,700.24828 423.70682,695.09143 421.4242,679.09917 C 419.14158,663.10691 415.9075,659.41781 414.39295,646.44292 C 413.29319,637.02152 414.28911,631.18426 414.9242,628.66167 L 412.89295,627.75542 z "
         style="fill:#3e3430;fill-opacity:1;fill-rule:evenodd;stroke:#000000;stroke-width:0.1;stroke-linecap:butt;stroke-linejoin:miter;stroke-miterlimit:4;stroke-dasharray:none;stroke-opacity:1;opacity:0.72199999" />
      <path
         id="path7091"
         d="M 282.33014,747.93552 L 263.08014,771.40427 L 249.67389,780.62302 L 232.89264,782.31052 L 226.20514,773.09177 L 211.70514,766.49802 C 209.47322,783.1718 211.45443,787.53818 214.33014,796.56052 C 217.57891,806.75334 220.80583,812.78369 224.89264,809.59177 C 228.97945,806.39986 230.67388,783.77928 230.67389,783.77927 C 230.67389,783.77927 234.42274,796.71505 240.23639,807.40427 C 246.05002,818.09352 249.55731,828.22227 253.92389,826.52927 C 258.29046,824.83626 257.70514,800.623 257.70514,800.62302 C 257.70514,800.62302 279.61375,836.15091 290.33014,847.46677 C 301.04654,858.78262 299.21655,851.45597 300.58014,845.90427 C 301.94372,840.35257 295.7989,825.24804 295.79889,825.24802 C 295.79889,825.24802 320.2044,856.35274 329.42389,861.21677 C 338.64338,866.08081 335.99392,856.38883 332.67389,844.71677 C 329.35387,833.04468 316.14264,814.52926 316.14264,814.52927 C 316.14264,814.52927 345.40274,852.4208 357.42389,858.81052 C 369.44504,865.20024 361.3775,843.62201 360.61139,833.87302 C 360.39316,831.09596 359.79716,828.76139 359.04889,826.84177 L 282.33014,747.93552 z "
         style="opacity:0.67900013;fill:#39312d;fill-opacity:1;fill-rule:evenodd;stroke:#000000;stroke-width:0.1;stroke-linecap:butt;stroke-linejoin:miter;stroke-miterlimit:4;stroke-dasharray:none;stroke-opacity:1" />
    </g>
  </g>
</svg>
